<svg width="24" height="19" viewBox="0 0 24 19" fill="none" xmlns="http://www.w3.org/2000/svg">
<path d="M18 12.9072C17.24 12.9072 16.56 13.138 16.04 13.4995L8.91 10.3071C8.96 10.1302 9 9.95322 9 9.7686C9 9.58397 8.96 9.40704 8.91 9.23011L15.96 6.06842C16.5 6.45306 17.21 6.69153 18 6.69153C19.66 6.69153 21 5.66071 21 4.38373C21 3.10675 19.66 2.07593 18 2.07593C16.34 2.07593 15 3.10675 15 4.38373C15 4.56835 15.04 4.74528 15.09 4.92221L8.04 8.0839C7.5 7.69927 6.79 7.4608 6 7.4608C4.34 7.4608 3 8.49161 3 9.7686C3 11.0456 4.34 12.0764 6 12.0764C6.79 12.0764 7.5 11.8379 8.04 11.4533L15.16 14.6534C15.11 14.815 15.08 14.9842 15.08 15.1535C15.08 16.392 16.39 17.3997 18 17.3997C19.61 17.3997 20.92 16.392 20.92 15.1535C20.92 13.9149 19.61 12.9072 18 12.9072Z" fill="#8C8787"/>
</svg>
