<svg width="20" height="20" viewBox="0 0 20 20" fill="none" xmlns="http://www.w3.org/2000/svg">
<path d="M18.1596 2.15739C17.666 1.6436 17.08 1.2361 16.435 0.95817C15.79 0.680238 15.0988 0.537325 14.4008 0.537598C13.7027 0.537871 13.0116 0.681324 12.3668 0.95976C11.722 1.2382 11.1363 1.64616 10.6431 2.16032L9.99927 2.83865L9.3608 2.16179L9.35665 2.15747C8.86329 1.64393 8.27759 1.23657 7.63299 0.958639C6.98839 0.680711 6.29751 0.537663 5.5998 0.537663C4.90208 0.537663 4.2112 0.680711 3.5666 0.958639C2.922 1.23657 2.3363 1.64393 1.84294 2.15747L1.55613 2.45602C0.559755 3.49316 0 4.89982 0 6.36655C0 7.83328 0.559755 9.23994 1.55613 10.2771L9.12599 18.1565L9.98084 19.0888L10.0012 19.0676L10.0233 19.0906L10.8243 18.211L18.4464 10.2769C19.4413 9.23899 20 7.83264 20 6.36642C20 4.9002 19.4413 3.49386 18.4464 2.45589L18.1596 2.15739ZM17.507 9.29933L10.0012 17.1123L2.49528 9.29933C1.748 8.52148 1.32819 7.46649 1.32819 6.36644C1.32819 5.2664 1.748 4.21141 2.49528 3.43355L2.78214 3.135C3.52905 2.35754 4.54197 1.92058 5.59826 1.92017C6.65455 1.91975 7.66778 2.35592 8.41526 3.1328L9.9964 4.80862L11.5851 3.135C11.9551 2.74985 12.3944 2.44432 12.8778 2.23588C13.3613 2.02743 13.8794 1.92014 14.4027 1.92014C14.926 1.92014 15.4441 2.02743 15.9276 2.23588C16.4111 2.44432 16.8503 2.74985 17.2203 3.135L17.5072 3.43351C18.2533 4.212 18.6723 5.26679 18.6723 6.36646C18.6723 7.46613 18.2532 8.52088 17.507 9.29933Z" fill="black"/>
</svg>
