<svg width="24" height="29" viewBox="0 0 24 29" fill="none" xmlns="http://www.w3.org/2000/svg">
<path d="M22.8248 13.4623L2.37649 0.515576C2.1378 0.36446 1.86574 0.283301 1.58799 0.280357C1.31023 0.277412 1.0367 0.352787 0.795231 0.498813C0.553758 0.644838 0.352963 0.856301 0.213278 1.11168C0.0735935 1.36707 4.55858e-06 1.65725 0 1.95271V27.3283C0.000324256 27.6211 0.0728642 27.9087 0.210375 28.1624C0.347887 28.4161 0.545557 28.6269 0.783644 28.7739C1.02173 28.9209 1.29191 28.9988 1.56718 29C1.84246 29.0012 2.11321 28.9255 2.35238 28.7805L22.8006 16.3518C23.0392 16.2068 23.2379 15.9977 23.3769 15.7455C23.5159 15.4934 23.5903 15.2068 23.5927 14.9145C23.5951 14.6222 23.5255 14.3343 23.3907 14.0796C23.256 13.8248 23.0608 13.6121 22.8246 13.4625L22.8248 13.4623ZM2.09642 26.3677V2.93333L20.9802 14.8896L2.09642 26.3677Z" fill="#D2CACA"/>
</svg>
